<svg width="3202" height="330" viewBox="0 0 3202 330" fill="none" xmlns="http://www.w3.org/2000/svg">
<g clip-path="url(#clip0_2535_39)">
<path d="M447.229 329.58C422.009 329.58 397.689 320.36 383.359 296.04H375.039V322.66H317.699V6H375.039V121.2H383.359C398.079 95.98 425.599 86.26 450.429 86.26C512.379 86.26 554.239 135.8 554.239 205.56C554.239 275.32 508.289 329.46 447.229 329.46V329.59V329.58ZM434.819 278.26C470.149 278.26 495.359 249.33 495.359 207.99C495.359 166.65 469.629 137.72 434.819 137.72C400.009 137.72 375.169 165.24 375.169 207.99C375.169 250.74 400.389 278.26 434.819 278.26ZM660.219 329.58C616.189 329.58 580.349 302.96 580.349 259.31C580.349 215.66 619.769 191.34 667.519 186.35L734.979 179.44V166.64C734.979 146.93 718.849 133.1 690.439 133.1C662.029 133.1 647.689 145 642.699 162.92H587.659C593.159 119.27 629.389 86.25 690.439 86.25C751.489 86.25 788.229 114.67 788.229 170.22V282.22C788.229 296.43 789.639 316.14 790.529 321.64V322.54H735.489C734.979 314.73 734.979 307.44 734.979 299.63H726.659C712.449 322.54 687.619 329.45 660.099 329.45L660.229 329.58H660.219ZM675.839 286.45C713.469 286.45 735.099 258.03 735.099 229.11V217.59L684.539 223.61C653.309 227.32 638.199 236.41 638.199 256.63C638.199 276.85 653.819 286.45 675.829 286.45H675.839ZM926.079 329.58C868.219 329.58 826.879 300.65 820.479 255.21H876.929C883.329 275.43 904.449 284.14 926.469 284.14C948.489 284.14 967.299 274.54 967.299 257.52C967.299 240.5 949.889 235.89 925.959 231.79L901.639 227.69C855.689 219.88 827.269 200.55 827.269 159.34C827.269 118.13 866.689 86.38 921.349 86.38C976.009 86.38 1009.93 111.21 1019.53 154.35H964.489C958.089 137.33 941.069 130.54 921.739 130.54C902.409 130.54 883.209 140.65 883.209 154.86C883.209 169.07 895.109 174.19 919.949 178.28L944.269 182.38C988.809 189.68 1022.73 208.11 1022.73 252.65C1022.73 297.19 982.279 329.83 925.829 329.83L926.089 329.57L926.079 329.58ZM1166.59 329.58C1095.93 329.58 1049.09 281.32 1049.09 207.47C1049.09 133.62 1098.63 86.25 1167.11 86.25C1235.59 86.25 1280.01 139.5 1280.01 209.77V219.88H1105.16C1107.98 258.02 1134.6 280.42 1166.73 280.42C1198.86 280.42 1209.48 271.2 1217.29 255.2H1276.04C1264.14 298.34 1221.38 329.57 1166.73 329.57H1166.6L1166.59 329.58ZM1223.94 181.87C1219.33 151.15 1195.01 133.23 1166.6 133.23C1138.19 133.23 1111.56 150.64 1106.06 181.87H1224.08H1223.95H1223.94Z" fill="black"/>
<path d="M13.82 322.8C4.6 322.8 0 318.19 0 308.98V106.99C0 97.7699 4.61 93.1699 13.82 93.1699H215.8C225.02 93.1699 229.62 97.7799 229.62 106.99V308.97C229.62 318.19 225.01 322.79 215.8 322.79H13.82V322.8Z" fill="#0000FF"/>
</g>
<path d="M3197.74 92.6209V135.064H3063.89V92.6209H3197.74ZM3096.93 36.8379H3151.81V255.422C3151.81 262.799 3152.92 268.458 3155.14 272.4C3157.46 276.24 3160.5 278.867 3164.24 280.282C3167.97 281.697 3172.12 282.404 3176.67 282.404C3180.1 282.404 3183.23 282.152 3186.06 281.646C3188.99 281.141 3191.22 280.686 3192.73 280.282L3201.98 323.18C3199.05 324.191 3194.86 325.303 3189.4 326.515C3184.04 327.728 3177.47 328.435 3169.69 328.637C3155.95 329.042 3143.57 326.97 3132.55 322.422C3121.54 317.774 3112.8 310.599 3106.33 300.897C3099.96 291.196 3096.83 279.069 3096.93 264.517V36.8379Z" fill="black"/>
<path d="M3031.22 154.163L2981.2 159.62C2979.78 154.567 2977.31 149.817 2973.77 145.371C2970.34 140.924 2965.69 137.337 2959.83 134.608C2953.96 131.88 2946.79 130.516 2938.3 130.516C2926.88 130.516 2917.28 132.991 2909.5 137.943C2901.82 142.895 2898.03 149.312 2898.13 157.194C2898.03 163.965 2900.51 169.473 2905.56 173.717C2910.71 177.961 2919.2 181.448 2931.02 184.176L2970.74 192.665C2992.77 197.415 3009.14 204.943 3019.85 215.251C3030.67 225.559 3036.12 239.05 3036.22 255.724C3036.12 270.377 3031.83 283.312 3023.34 294.53C3014.95 305.646 3003.28 314.337 2988.32 320.602C2973.37 326.868 2956.19 330 2936.78 330C2908.29 330 2885.35 324.038 2867.97 312.113C2850.58 300.088 2840.23 283.363 2836.89 261.939L2890.4 256.785C2892.83 267.295 2897.98 275.228 2905.86 280.584C2913.74 285.94 2924 288.618 2936.63 288.618C2949.67 288.618 2960.13 285.94 2968.01 280.584C2975.99 275.228 2979.99 268.609 2979.99 260.726C2979.99 254.057 2977.41 248.549 2972.26 244.204C2967.2 239.858 2959.32 236.523 2948.61 234.199L2908.89 225.862C2886.56 221.213 2870.04 213.382 2859.33 202.367C2848.61 191.25 2843.31 177.204 2843.41 160.226C2843.31 145.876 2847.2 133.446 2855.08 122.936C2863.06 112.326 2874.13 104.14 2888.28 98.3798C2902.53 92.5185 2918.95 89.5879 2937.54 89.5879C2964.83 89.5879 2986.3 95.3986 3001.97 107.02C3017.73 118.642 3027.48 134.356 3031.22 154.163Z" fill="black"/>
<path d="M2697.24 330C2673.9 330 2653.74 325.15 2636.76 315.448C2619.88 305.646 2606.9 291.801 2597.8 273.914C2588.71 255.926 2584.16 234.755 2584.16 210.4C2584.16 186.45 2588.71 165.431 2597.8 147.341C2607 129.151 2619.83 115.004 2636.31 104.898C2652.78 94.6912 2672.13 89.5879 2694.36 89.5879C2708.71 89.5879 2722.25 91.9122 2734.99 96.5608C2747.82 101.108 2759.14 108.182 2768.94 117.783C2778.84 127.383 2786.63 139.611 2792.29 154.466C2797.94 169.22 2800.77 186.804 2800.77 207.217V224.043H2609.93V187.057H2748.17C2748.07 176.547 2745.8 167.199 2741.35 159.013C2736.91 150.727 2730.69 144.209 2722.71 139.459C2714.83 134.709 2705.63 132.335 2695.12 132.335C2683.9 132.335 2674.05 135.063 2665.56 140.52C2657.07 145.876 2650.45 152.95 2645.7 161.742C2641.05 170.433 2638.68 179.983 2638.58 190.391V222.679C2638.58 236.22 2641.05 247.842 2646.01 257.543C2650.96 267.143 2657.88 274.521 2666.77 279.674C2675.67 284.727 2686.08 287.254 2698 287.254C2705.98 287.254 2713.21 286.142 2719.68 283.919C2726.14 281.594 2731.75 278.209 2736.5 273.763C2741.25 269.316 2744.84 263.809 2747.26 257.24L2798.5 263C2795.27 276.542 2789.1 288.365 2780.01 298.471C2771.01 308.475 2759.49 316.257 2745.45 321.815C2731.4 327.272 2715.33 330 2697.24 330Z" fill="black"/>
<path d="M2327.72 325.45V15.0059H2382.59V131.119H2384.87C2387.7 125.46 2391.69 119.447 2396.84 113.081C2401.99 106.613 2408.97 101.106 2417.76 96.5581C2426.55 91.9096 2437.77 89.5853 2451.41 89.5853C2469.4 89.5853 2485.62 94.1833 2500.07 103.379C2514.62 112.474 2526.14 125.965 2534.63 143.852C2543.22 161.638 2547.52 183.466 2547.52 209.337C2547.52 234.904 2543.32 256.631 2534.93 274.518C2526.55 292.405 2515.13 306.047 2500.68 315.446C2486.23 324.844 2469.85 329.543 2451.56 329.543C2438.22 329.543 2427.16 327.32 2418.37 322.873C2409.57 318.427 2402.5 313.071 2397.14 306.805C2391.89 300.439 2387.8 294.426 2384.87 288.767H2381.68V325.45H2327.72ZM2381.53 209.034C2381.53 224.091 2383.65 237.279 2387.9 248.597C2392.24 259.915 2398.46 268.758 2406.54 275.124C2414.73 281.39 2424.63 284.522 2436.25 284.522C2448.38 284.522 2458.54 281.289 2466.72 274.821C2474.91 268.252 2481.07 259.309 2485.21 247.991C2489.46 236.571 2491.58 223.586 2491.58 209.034C2491.58 194.583 2489.51 181.748 2485.37 170.531C2481.22 159.314 2475.06 150.522 2466.87 144.156C2458.69 137.789 2448.48 134.606 2436.25 134.606C2424.53 134.606 2414.58 137.688 2406.39 143.852C2398.21 150.017 2391.99 158.657 2387.75 169.773C2383.6 180.889 2381.53 193.976 2381.53 209.034Z" fill="black"/>
<path d="M2237 325C2224.32 325 2213.44 320.568 2204.38 311.703C2195.32 302.839 2190.86 292.035 2191 279.292C2190.86 266.826 2195.32 256.161 2204.38 247.297C2213.44 238.432 2224.32 234 2237 234C2249.27 234 2259.93 238.432 2268.99 247.297C2278.19 256.161 2282.86 266.826 2283 279.292C2282.86 287.741 2280.63 295.428 2276.31 302.354C2272.13 309.279 2266.55 314.82 2259.58 318.975C2252.75 322.992 2245.23 325 2237 325Z" fill="#0000FF"/>
<path d="M1996.24 189.027V325.453H1941.37V92.6196H1993.82V132.183H1996.55C2001.9 119.147 2010.44 108.789 2022.16 101.108C2033.99 93.428 2048.59 89.5879 2065.97 89.5879C2082.04 89.5879 2096.04 93.0238 2107.96 99.8956C2119.99 106.767 2129.28 116.721 2135.85 129.758C2142.52 142.794 2145.81 158.609 2145.7 177.204V325.453H2090.83V185.692C2090.83 170.13 2086.79 157.952 2078.7 149.16C2070.72 140.369 2059.66 135.973 2045.51 135.973C2035.91 135.973 2027.37 138.095 2019.89 142.339C2012.51 146.482 2006.7 152.495 2002.46 160.378C1998.31 168.26 1996.24 177.81 1996.24 189.027Z" fill="black"/>
<path d="M1830.07 325.451V92.6179H1884.94V325.451H1830.07ZM1857.65 59.5726C1848.96 59.5726 1841.49 56.6925 1835.22 50.9323C1828.96 45.071 1825.82 38.0476 1825.82 29.8621C1825.82 21.5755 1828.96 14.5521 1835.22 8.79187C1841.49 2.93062 1848.96 0 1857.65 0C1866.45 0 1873.92 2.93062 1880.09 8.79187C1886.35 14.5521 1889.49 21.5755 1889.49 29.8621C1889.49 38.0476 1886.35 45.071 1880.09 50.9323C1873.92 56.6925 1866.45 59.5726 1857.65 59.5726Z" fill="black"/>
<path d="M1671.93 330C1649.19 330 1629.49 324.998 1612.81 314.994C1596.14 304.989 1583.2 290.993 1574.01 273.005C1564.91 255.017 1560.36 233.997 1560.36 209.946C1560.36 185.894 1564.91 164.824 1574.01 146.735C1583.2 128.646 1596.14 114.599 1612.81 104.595C1629.49 94.5902 1649.19 89.5879 1671.93 89.5879C1694.67 89.5879 1714.37 94.5902 1731.05 104.595C1747.72 114.599 1760.61 128.646 1769.7 146.735C1778.9 164.824 1783.5 185.894 1783.5 209.946C1783.5 233.997 1778.9 255.017 1769.7 273.005C1760.61 290.993 1747.72 304.989 1731.05 314.994C1714.37 324.998 1694.67 330 1671.93 330ZM1672.23 286.041C1684.56 286.041 1694.87 282.656 1703.16 275.885C1711.44 269.013 1717.61 259.817 1721.65 248.296C1725.79 236.776 1727.86 223.942 1727.86 209.794C1727.86 195.545 1725.79 182.661 1721.65 171.14C1717.61 159.519 1711.44 150.272 1703.16 143.4C1694.87 136.528 1684.56 133.093 1672.23 133.093C1659.6 133.093 1649.09 136.528 1640.7 143.4C1632.42 150.272 1626.2 159.519 1622.06 171.14C1618.02 182.661 1615.99 195.545 1615.99 209.794C1615.99 223.942 1618.02 236.776 1622.06 248.296C1626.2 259.817 1632.42 269.013 1640.7 275.885C1649.09 282.656 1659.6 286.041 1672.23 286.041Z" fill="black"/>
<path d="M1425.57 330C1402.32 330 1382.36 324.897 1365.69 314.69C1349.12 304.484 1336.33 290.386 1327.34 272.398C1318.45 254.309 1314 233.492 1314 209.946C1314 186.299 1318.55 165.431 1327.64 147.341C1336.74 129.151 1349.57 115.004 1366.14 104.898C1382.82 94.6912 1402.53 89.5879 1425.26 89.5879C1444.16 89.5879 1460.89 93.0743 1475.44 100.047C1490.09 106.919 1501.76 116.671 1510.45 129.303C1519.14 141.834 1524.1 156.487 1525.31 173.262H1472.86C1470.74 162.045 1465.69 152.697 1457.7 145.219C1449.82 137.64 1439.26 133.85 1426.02 133.85C1414.8 133.85 1404.95 136.882 1396.46 142.946C1387.97 148.908 1381.35 157.498 1376.6 168.715C1371.96 179.932 1369.63 193.373 1369.63 209.036C1369.63 224.902 1371.96 238.545 1376.6 249.964C1381.25 261.282 1387.77 270.024 1396.16 276.188C1404.65 282.251 1414.6 285.283 1426.02 285.283C1434.11 285.283 1441.33 283.767 1447.7 280.736C1454.16 277.603 1459.57 273.106 1463.92 267.245C1468.26 261.383 1471.24 254.259 1472.86 245.871H1525.31C1523.99 262.343 1519.14 276.946 1510.76 289.679C1502.37 302.311 1490.95 312.214 1476.5 319.389C1462.05 326.463 1445.07 330 1425.57 330Z" fill="black"/>
<defs>
<clipPath id="clip0_2535_39">
<rect width="1280" height="323.84" fill="white" transform="translate(0 6)"/>
</clipPath>
</defs>
</svg>
