<svg width="678" height="95" viewBox="0 0 678 95" fill="none" xmlns="http://www.w3.org/2000/svg">
<g clip-path="url(#clip0_2575_9)">
<path d="M125.705 92.9662C118.617 92.9662 111.781 90.3746 107.753 83.5389H105.415V91.0211H89.2979V2.01562H105.415V34.3956H107.753C111.891 27.3068 119.626 24.5748 126.605 24.5748C144.017 24.5748 155.783 38.4993 155.783 58.1071C155.783 77.715 142.868 92.9324 125.705 92.9324V92.969V92.9662ZM122.217 78.5414C132.148 78.5414 139.234 70.4098 139.234 58.7901C139.234 47.1705 132.002 39.0389 122.217 39.0389C112.433 39.0389 105.451 46.7742 105.451 58.7901C105.451 70.8061 112.54 78.5414 122.217 78.5414ZM185.572 92.9662C173.196 92.9662 163.122 85.4839 163.122 73.215C163.122 60.946 174.202 54.1102 187.623 52.7077L206.585 50.7654V47.1677C206.585 41.6277 202.051 37.7404 194.066 37.7404C186.08 37.7404 182.05 41.0852 180.647 46.1221H165.177C166.723 33.8531 176.906 24.572 194.066 24.572C211.225 24.572 221.552 32.5601 221.552 48.1739V79.6544C221.552 83.6485 221.948 89.1885 222.198 90.7344V90.9874H206.728C206.585 88.7922 206.585 86.7431 206.585 84.5479H204.246C200.252 90.9874 193.273 92.9296 185.538 92.9296L185.574 92.9662H185.572ZM189.962 80.8434C200.539 80.8434 206.618 72.8552 206.618 64.7265V61.4885L192.407 63.1805C183.629 64.2233 179.382 66.7783 179.382 72.4617C179.382 78.145 183.773 80.8434 189.959 80.8434H189.962ZM260.298 92.9662C244.035 92.9662 232.415 84.8346 230.617 72.0626H246.483C248.282 77.7459 254.218 80.1941 260.408 80.1941C266.597 80.1941 271.884 77.4958 271.884 72.7118C271.884 67.9279 266.99 66.6322 260.264 65.4797L253.429 64.3273C240.513 62.1321 232.525 56.6989 232.525 45.1158C232.525 33.5327 243.605 24.6085 258.969 24.6085C274.332 24.6085 283.866 31.5876 286.565 43.7132H271.094C269.295 38.9293 264.511 37.0208 259.078 37.0208C253.645 37.0208 248.248 39.8625 248.248 43.8566C248.248 47.8507 251.593 49.2898 258.575 50.4394L265.411 51.5918C277.93 53.6436 287.464 58.8239 287.464 71.343C287.464 83.8621 276.094 93.0364 260.228 93.0364L260.301 92.9634L260.298 92.9662ZM327.899 92.9662C308.039 92.9662 294.873 79.4014 294.873 58.644C294.873 37.8865 308.798 24.572 328.046 24.572C347.294 24.572 359.779 39.5393 359.779 59.2905V62.1321H310.633C311.426 72.8524 318.908 79.1485 327.939 79.1485C336.97 79.1485 339.955 76.557 342.15 72.0597H358.663C355.318 84.1853 343.299 92.9634 327.939 92.9634H327.902L327.899 92.9662ZM344.019 51.4484C342.723 42.8138 335.888 37.7769 327.902 37.7769C319.917 37.7769 312.432 42.6704 310.886 51.4484H344.058H344.022H344.019Z" fill="black"/>
<path d="M3.88445 91.061C1.29294 91.061 0 89.7653 0 87.1766V30.402C0 27.8105 1.29575 26.5176 3.88445 26.5176H60.6559C63.2474 26.5176 64.5404 27.8133 64.5404 30.402V87.1738C64.5404 89.7653 63.2446 91.0582 60.6559 91.0582H3.88445V91.061Z" fill="#0000FF"/>
</g>
<path d="M676.444 44.0595L662.147 45.6191C661.742 44.175 661.035 42.8175 660.024 41.5467C659.042 40.2759 657.713 39.2505 656.038 38.4707C654.363 37.6909 652.312 37.301 649.886 37.301C646.622 37.301 643.878 38.0086 641.654 39.4238C639.459 40.8391 638.376 42.6731 638.405 44.926C638.376 46.8611 639.084 48.4352 640.528 49.6483C642.001 50.8613 644.427 51.8578 647.806 52.6376L659.157 55.0637C665.454 56.4212 670.133 58.573 673.194 61.519C676.285 64.465 677.844 68.3208 677.873 73.0865C677.844 77.2744 676.617 80.9714 674.191 84.1774C671.793 87.3545 668.458 89.8384 664.183 91.6291C659.908 93.4198 654.998 94.3152 649.453 94.3152C641.308 94.3152 634.752 92.6111 629.784 89.2029C624.816 85.7659 621.855 80.9859 620.902 74.8627L636.196 73.3897C636.889 76.3935 638.362 78.6608 640.615 80.1916C642.868 81.7224 645.799 82.4877 649.409 82.4877C653.135 82.4877 656.125 81.7224 658.378 80.1916C660.659 78.6608 661.8 76.769 661.8 74.5162C661.8 72.6099 661.064 71.0358 659.591 69.7938C658.146 68.5519 655.894 67.5988 652.832 66.9345L641.481 64.5517C635.098 63.2231 630.376 60.9847 627.314 57.8365C624.253 54.6594 622.736 50.6447 622.765 45.7924C622.736 41.6911 623.848 38.1386 626.101 35.1348C628.383 32.1021 631.546 29.7626 635.589 28.1163C639.662 26.4411 644.355 25.6035 649.669 25.6035C657.468 25.6035 663.605 27.2643 668.082 30.5858C672.588 33.9073 675.375 38.3985 676.444 44.0595Z" fill="black"/>
<path d="M565.189 54.024V93.0154H549.506V26.47H564.496V37.7775H565.276C566.807 34.0517 569.247 31.0912 572.597 28.8961C575.977 26.7011 580.15 25.6035 585.118 25.6035C589.71 25.6035 593.711 26.5855 597.119 28.5495C600.556 30.5136 603.213 33.3585 605.09 37.0843C606.997 40.8102 607.935 45.3303 607.906 50.6447V93.0154H592.223V53.0708C592.223 48.6229 591.068 45.1426 588.757 42.6298C586.476 40.117 583.313 38.8606 579.269 38.8606C576.526 38.8606 574.085 39.4671 571.948 40.6802C569.839 41.8644 568.178 43.5829 566.965 45.8358C565.781 48.0886 565.189 50.818 565.189 54.024Z" fill="black"/>
<path d="M517.695 93.0163V26.4709H533.378V93.0163H517.695ZM525.579 17.0263C523.096 17.0263 520.958 16.2031 519.168 14.5568C517.377 12.8816 516.481 10.8743 516.481 8.5348C516.481 6.16643 517.377 4.15909 519.168 2.51278C520.958 0.837594 523.096 0 525.579 0C528.092 0 530.23 0.837594 531.991 2.51278C533.782 4.15909 534.677 6.16643 534.677 8.5348C534.677 10.8743 533.782 12.8816 531.991 14.5568C530.23 16.2031 528.092 17.0263 525.579 17.0263Z" fill="black"/>
<path d="M472.498 94.3152C465.999 94.3152 460.367 92.8855 455.601 90.0261C450.836 87.1667 447.139 83.1665 444.51 78.0254C441.911 72.8843 440.611 66.8767 440.611 60.0027C440.611 53.1286 441.911 47.1066 444.51 41.9366C447.139 36.7666 450.836 32.752 455.601 29.8926C460.367 27.0332 465.999 25.6035 472.498 25.6035C478.996 25.6035 484.628 27.0332 489.394 29.8926C494.16 32.752 497.842 36.7666 500.442 41.9366C503.07 47.1066 504.384 53.1286 504.384 60.0027C504.384 66.8767 503.07 72.8843 500.442 78.0254C497.842 83.1665 494.16 87.1667 489.394 90.0261C484.628 92.8855 478.996 94.3152 472.498 94.3152ZM472.584 81.7512C476.108 81.7512 479.054 80.7837 481.422 78.8485C483.791 76.8845 485.553 74.2562 486.708 70.9636C487.892 67.671 488.484 64.0029 488.484 59.9593C488.484 55.8869 487.892 52.2044 486.708 48.9118C485.553 45.5903 483.791 42.9475 481.422 40.9835C479.054 39.0195 476.108 38.0375 472.584 38.0375C468.974 38.0375 465.97 39.0195 463.573 40.9835C461.205 42.9475 459.428 45.5903 458.244 48.9118C457.089 52.2044 456.511 55.8869 456.511 59.9593C456.511 64.0029 457.089 67.671 458.244 70.9636C459.428 74.2562 461.205 76.8845 463.573 78.8485C465.97 80.7837 468.974 81.7512 472.584 81.7512Z" fill="black"/>
<path d="M402.086 94.3152C395.443 94.3152 389.738 92.8566 384.973 89.9395C380.236 87.0223 376.582 82.9932 374.012 77.8521C371.47 72.6821 370.199 66.7323 370.199 60.0027C370.199 53.2441 371.499 47.2799 374.098 42.1099C376.698 36.911 380.366 32.8675 385.103 29.9792C389.868 27.0621 395.5 25.6035 401.999 25.6035C407.4 25.6035 412.18 26.6 416.339 28.5929C420.527 30.5569 423.863 33.344 426.347 36.9544C428.831 40.5358 430.246 44.7238 430.593 49.5183H415.603C414.996 46.3123 413.552 43.6407 411.27 41.5034C409.017 39.3372 405.999 38.2541 402.216 38.2541C399.01 38.2541 396.194 39.1206 393.767 40.8535C391.341 42.5576 389.449 45.0126 388.092 48.2186C386.763 51.4245 386.099 55.2659 386.099 59.7427C386.099 64.2773 386.763 68.1764 388.092 71.4402C389.421 74.675 391.283 77.1734 393.681 78.9352C396.107 80.6681 398.952 81.5346 402.216 81.5346C404.526 81.5346 406.591 81.1014 408.411 80.2349C410.259 79.3395 411.805 78.0543 413.047 76.3791C414.288 74.7039 415.141 72.6677 415.603 70.2704H430.593C430.217 74.9783 428.831 79.1518 426.434 82.791C424.036 86.4013 420.773 89.2318 416.642 91.2825C412.512 93.3043 407.66 94.3152 402.086 94.3152Z" fill="black"/>
<defs>
<clipPath id="clip0_2575_9">
<rect width="359.776" height="91.0236" fill="white" transform="translate(0 2.01562)"/>
</clipPath>
</defs>
</svg>
